<?xml version="1.0" encoding="UTF-8" standalone="no"?>
<!DOCTYPE svg PUBLIC "-//W3C//DTD SVG 1.1//EN"
 "http://www.w3.org/Graphics/SVG/1.1/DTD/svg11.dtd">
<!-- Generated by graphviz version 2.42.4 (0)
 -->
<!-- Title: G Pages: 1 -->
<svg width="1497pt" height="170pt"
 viewBox="0.00 0.00 1496.58 169.62" xmlns="http://www.w3.org/2000/svg" xmlns:xlink="http://www.w3.org/1999/xlink">
<g id="graph0" class="graph" transform="scale(1 1) rotate(0) translate(4 165.62)">
<title>G</title>
<polygon fill="white" stroke="transparent" points="-4,4 -4,-165.62 1492.58,-165.62 1492.58,4 -4,4"/>
<!-- ref -->
<g id="node1" class="node">
<title>ref</title>
<path fill="none" stroke="black" d="M175,-91.98C175,-94.06 135.78,-95.75 87.5,-95.75 39.22,-95.75 0,-94.06 0,-91.98 0,-91.98 0,-58.02 0,-58.02 0,-55.94 39.22,-54.25 87.5,-54.25 135.78,-54.25 175,-55.94 175,-58.02 175,-58.02 175,-91.98 175,-91.98"/>
<path fill="none" stroke="black" d="M175,-91.98C175,-89.9 135.78,-88.21 87.5,-88.21 39.22,-88.21 0,-89.9 0,-91.98"/>
<text text-anchor="middle" x="87.5" y="-78" font-family="Arial" font-size="10.00">Reference Parquet</text>
<text text-anchor="middle" x="87.5" y="-67" font-family="Arial" font-size="10.00">reference_bootstrap_training.parquet</text>
</g>
<!-- builder -->
<g id="node3" class="node">
<title>builder</title>
<path fill="none" stroke="black" d="M367,-92C367,-92 223,-92 223,-92 217,-92 211,-86 211,-80 211,-80 211,-68 211,-68 211,-62 217,-56 223,-56 223,-56 367,-56 367,-56 373,-56 379,-62 379,-68 379,-68 379,-80 379,-80 379,-86 373,-92 367,-92"/>
<text text-anchor="middle" x="295" y="-77" font-family="Arial" font-size="10.00">Dataset Builder</text>
<text text-anchor="middle" x="295" y="-66" font-family="Arial" font-size="10.00">reference bootstrap / runtime blend</text>
</g>
<!-- ref&#45;&gt;builder -->
<g id="edge1" class="edge">
<title>ref&#45;&gt;builder</title>
<path fill="none" stroke="black" d="M175.05,-74.58C183.57,-74.54 192.24,-74.5 200.81,-74.45"/>
<polygon fill="black" stroke="black" points="200.84,-77.95 210.83,-74.4 200.81,-70.95 200.84,-77.95"/>
</g>
<!-- rt -->
<g id="node2" class="node">
<title>rt</title>
<path fill="none" stroke="black" d="M162,-32.73C162,-34.53 128.61,-36 87.5,-36 46.39,-36 13,-34.53 13,-32.73 13,-32.73 13,-3.27 13,-3.27 13,-1.47 46.39,0 87.5,0 128.61,0 162,-1.47 162,-3.27 162,-3.27 162,-32.73 162,-32.73"/>
<path fill="none" stroke="black" d="M162,-32.73C162,-30.92 128.61,-29.45 87.5,-29.45 46.39,-29.45 13,-30.92 13,-32.73"/>
<text text-anchor="middle" x="87.5" y="-15.5" font-family="Arial" font-size="10.00">PostgreSQL runtime telemetry</text>
</g>
<!-- rt&#45;&gt;builder -->
<g id="edge2" class="edge">
<title>rt&#45;&gt;builder</title>
<path fill="none" stroke="black" d="M150.99,-35.03C172.18,-40.8 196.09,-47.32 218.2,-53.34"/>
<polygon fill="black" stroke="black" points="217.31,-56.73 227.88,-55.98 219.15,-49.98 217.31,-56.73"/>
</g>
<!-- infer -->
<g id="node8" class="node">
<title>infer</title>
<path fill="none" stroke="black" d="M1121,-92C1121,-92 994,-92 994,-92 988,-92 982,-86 982,-80 982,-80 982,-68 982,-68 982,-62 988,-56 994,-56 994,-56 1121,-56 1121,-56 1127,-56 1133,-62 1133,-68 1133,-68 1133,-80 1133,-80 1133,-86 1127,-92 1121,-92"/>
<text text-anchor="middle" x="1057.5" y="-77" font-family="Arial" font-size="10.00">AI Analytics inference worker</text>
<text text-anchor="middle" x="1057.5" y="-66" font-family="Arial" font-size="10.00">/ml/predict + periodic inference</text>
</g>
<!-- rt&#45;&gt;infer -->
<g id="edge7" class="edge">
<title>rt&#45;&gt;infer</title>
<path fill="none" stroke="black" d="M162.21,-18C241.36,-18 370.83,-18 482.5,-18 482.5,-18 482.5,-18 677,-18 796.85,-18 828.46,-13.56 946,-37 964.5,-40.69 984.18,-46.6 1001.73,-52.62"/>
<polygon fill="black" stroke="black" points="1000.64,-55.95 1011.24,-55.97 1002.96,-49.35 1000.64,-55.95"/>
</g>
<!-- pq -->
<g id="node4" class="node">
<title>pq</title>
<path fill="none" stroke="black" d="M552,-88.73C552,-90.53 521.3,-92 483.5,-92 445.7,-92 415,-90.53 415,-88.73 415,-88.73 415,-59.27 415,-59.27 415,-57.47 445.7,-56 483.5,-56 521.3,-56 552,-57.47 552,-59.27 552,-59.27 552,-88.73 552,-88.73"/>
<path fill="none" stroke="black" d="M552,-88.73C552,-86.92 521.3,-85.45 483.5,-85.45 445.7,-85.45 415,-86.92 415,-88.73"/>
<text text-anchor="middle" x="483.5" y="-71.5" font-family="Arial" font-size="10.00">Versioned Parquet datasets</text>
</g>
<!-- builder&#45;&gt;pq -->
<g id="edge3" class="edge">
<title>builder&#45;&gt;pq</title>
<path fill="none" stroke="black" d="M379.16,-74C387.65,-74 396.26,-74 404.69,-74"/>
<polygon fill="black" stroke="black" points="404.88,-77.5 414.88,-74 404.88,-70.5 404.88,-77.5"/>
</g>
<!-- train -->
<g id="node5" class="node">
<title>train</title>
<path fill="none" stroke="black" d="M752,-94.5C752,-94.5 600,-94.5 600,-94.5 594,-94.5 588,-88.5 588,-82.5 588,-82.5 588,-65.5 588,-65.5 588,-59.5 594,-53.5 600,-53.5 600,-53.5 752,-53.5 752,-53.5 758,-53.5 764,-59.5 764,-65.5 764,-65.5 764,-82.5 764,-82.5 764,-88.5 758,-94.5 752,-94.5"/>
<text text-anchor="middle" x="676" y="-82.5" font-family="Arial" font-size="10.00">ML Pipeline</text>
<text text-anchor="middle" x="676" y="-71.5" font-family="Arial" font-size="10.00">RF vs ExtraTrees</text>
<text text-anchor="middle" x="676" y="-60.5" font-family="Arial" font-size="10.00">temporal split + LOFO + quality gate</text>
</g>
<!-- pq&#45;&gt;train -->
<g id="edge4" class="edge">
<title>pq&#45;&gt;train</title>
<path fill="none" stroke="black" d="M552.2,-74C560.5,-74 569.11,-74 577.74,-74"/>
<polygon fill="black" stroke="black" points="577.86,-77.5 587.86,-74 577.86,-70.5 577.86,-77.5"/>
</g>
<!-- artifacts -->
<g id="node6" class="node">
<title>artifacts</title>
<path fill="none" stroke="black" d="M936,-157.98C936,-160.06 907.76,-161.75 873,-161.75 838.24,-161.75 810,-160.06 810,-157.98 810,-157.98 810,-124.02 810,-124.02 810,-121.94 838.24,-120.25 873,-120.25 907.76,-120.25 936,-121.94 936,-124.02 936,-124.02 936,-157.98 936,-157.98"/>
<path fill="none" stroke="black" d="M936,-157.98C936,-155.9 907.76,-154.21 873,-154.21 838.24,-154.21 810,-155.9 810,-157.98"/>
<text text-anchor="middle" x="873" y="-144" font-family="Arial" font-size="10.00">shared/&lt;family&gt;/v2.1.0</text>
<text text-anchor="middle" x="873" y="-133" font-family="Arial" font-size="10.00">model.joblib + report.json</text>
</g>
<!-- train&#45;&gt;artifacts -->
<g id="edge5" class="edge">
<title>train&#45;&gt;artifacts</title>
<path fill="none" stroke="black" d="M736.83,-94.56C758.58,-102.03 783.28,-110.52 805.57,-118.17"/>
<polygon fill="black" stroke="black" points="804.69,-121.57 815.28,-121.51 806.96,-114.95 804.69,-121.57"/>
</g>
<!-- registry -->
<g id="node7" class="node">
<title>registry</title>
<path fill="none" stroke="black" d="M946,-97.22C946,-100.06 913.28,-102.38 873,-102.38 832.72,-102.38 800,-100.06 800,-97.22 800,-97.22 800,-50.78 800,-50.78 800,-47.94 832.72,-45.62 873,-45.62 913.28,-45.62 946,-47.94 946,-50.78 946,-50.78 946,-97.22 946,-97.22"/>
<path fill="none" stroke="black" d="M946,-97.22C946,-94.37 913.28,-92.06 873,-92.06 832.72,-92.06 800,-94.37 800,-97.22"/>
<text text-anchor="middle" x="873" y="-82.5" font-family="Arial" font-size="10.00">knowledge_db.model_registry</text>
<text text-anchor="middle" x="873" y="-71.5" font-family="Arial" font-size="10.00">model_evaluations</text>
<text text-anchor="middle" x="873" y="-60.5" font-family="Arial" font-size="10.00">ml_datasets</text>
</g>
<!-- train&#45;&gt;registry -->
<g id="edge6" class="edge">
<title>train&#45;&gt;registry</title>
<path fill="none" stroke="black" d="M764.23,-74C772.67,-74 781.21,-74 789.59,-74"/>
<polygon fill="black" stroke="black" points="789.73,-77.5 799.73,-74 789.73,-70.5 789.73,-77.5"/>
</g>
<!-- artifacts&#45;&gt;infer -->
<g id="edge8" class="edge">
<title>artifacts&#45;&gt;infer</title>
<path fill="none" stroke="black" d="M927.77,-121.26C949.76,-113.19 975.26,-103.83 997.74,-95.57"/>
<polygon fill="black" stroke="black" points="998.98,-98.84 1007.17,-92.11 996.57,-92.27 998.98,-98.84"/>
</g>
<!-- registry&#45;&gt;infer -->
<g id="edge9" class="edge">
<title>registry&#45;&gt;infer</title>
<path fill="none" stroke="black" d="M946.13,-74C954.58,-74 963.26,-74 971.86,-74"/>
<polygon fill="black" stroke="black" points="971.9,-77.5 981.9,-74 971.9,-70.5 971.9,-77.5"/>
</g>
<!-- pred -->
<g id="node9" class="node">
<title>pred</title>
<path fill="none" stroke="black" d="M1296,-90.98C1296,-93.06 1267.54,-94.75 1232.5,-94.75 1197.46,-94.75 1169,-93.06 1169,-90.98 1169,-90.98 1169,-57.02 1169,-57.02 1169,-54.94 1197.46,-53.25 1232.5,-53.25 1267.54,-53.25 1296,-54.94 1296,-57.02 1296,-57.02 1296,-90.98 1296,-90.98"/>
<path fill="none" stroke="black" d="M1296,-90.98C1296,-88.9 1267.54,-87.21 1232.5,-87.21 1197.46,-87.21 1169,-88.9 1169,-90.98"/>
<text text-anchor="middle" x="1232.5" y="-77" font-family="Arial" font-size="10.00">farm_db.farm_predictions</text>
<text text-anchor="middle" x="1232.5" y="-66" font-family="Arial" font-size="10.00">ai_training_runs / alerts</text>
</g>
<!-- infer&#45;&gt;pred -->
<g id="edge10" class="edge">
<title>infer&#45;&gt;pred</title>
<path fill="none" stroke="black" d="M1133.12,-74C1141.57,-74 1150.18,-74 1158.61,-74"/>
<polygon fill="black" stroke="black" points="1158.78,-77.5 1168.78,-74 1158.78,-70.5 1158.78,-77.5"/>
</g>
<!-- consumer -->
<g id="node10" class="node">
<title>consumer</title>
<ellipse fill="none" stroke="black" cx="1410.29" cy="-74" rx="78.08" ry="18"/>
<text text-anchor="middle" x="1410.29" y="-71.5" font-family="Arial" font-size="10.00">Chatbot / Crop Router / UI</text>
</g>
<!-- pred&#45;&gt;consumer -->
<g id="edge11" class="edge">
<title>pred&#45;&gt;consumer</title>
<path fill="none" stroke="black" d="M1296.47,-74C1304.59,-74 1313.03,-74 1321.46,-74"/>
<polygon fill="black" stroke="black" points="1321.73,-77.5 1331.73,-74 1321.73,-70.5 1321.73,-77.5"/>
</g>
</g>
</svg>
